<?xml version="1.0" standalone="no"?>
<!DOCTYPE svg PUBLIC "-//W3C//DTD SVG 20010904//EN"
 "http://www.w3.org/TR/2001/REC-SVG-20010904/DTD/svg10.dtd">
<svg version="1.0" xmlns="http://www.w3.org/2000/svg"
 width="460.000000pt" height="460.000000pt" viewBox="0 0 460.000000 460.000000"
 preserveAspectRatio="xMidYMid meet">
<metadata>
Created by potrace 1.14, written by Peter Selinger 2001-2017
</metadata>
<g transform="translate(0.000000,460.000000) scale(0.100000,-0.100000)"
fill="#000000" stroke="none">
<path d="M1204 4055 c-48 -115 -62 -326 -29 -442 l17 -62 -56 -80 c-67 -95
-110 -186 -132 -279 -25 -107 -15 -438 18 -552 l23 -85 -210 -2 c-319 -2 -693
-41 -703 -72 -4 -11 2 -12 24 -7 124 32 307 48 594 53 l305 6 17 -36 17 -35
-102 -7 c-343 -22 -847 -106 -847 -141 0 -8 36 -2 113 17 162 41 479 85 758
104 l86 6 43 -66 c126 -193 378 -326 712 -375 l87 -13 -53 -57 c-35 -39 -60
-78 -76 -120 -21 -55 -28 -65 -64 -81 -169 -74 -364 -25 -458 114 -112 167
-200 229 -321 229 -92 -1 -97 -43 -14 -100 97 -67 177 -172 205 -269 25 -86
143 -201 244 -238 45 -17 78 -20 216 -20 l162 1 0 -171 c0 -236 -14 -276 -110
-341 -46 -30 -64 -69 -39 -85 10 -6 10 -11 -1 -24 -13 -15 -11 -20 13 -39 80
-61 117 -101 127 -135 5 -20 10 -100 10 -178 0 -140 0 -143 23 -147 24 -6 161
-26 172 -26 4 0 5 90 3 201 l-3 200 22 -26 c37 -42 55 -120 60 -258 l5 -127
83 0 c46 0 90 -3 99 -6 14 -5 16 9 16 117 0 191 -34 269 -149 337 l-43 25 41
22 c71 36 116 87 140 160 20 62 21 84 21 420 l0 355 30 0 29 0 3 -372 c3 -365
4 -374 26 -423 28 -61 81 -117 133 -140 21 -10 39 -21 39 -24 0 -3 -17 -14
-38 -23 -61 -28 -105 -80 -130 -150 -18 -52 -22 -84 -22 -187 l0 -124 38 7
c20 3 65 6 98 6 l62 0 5 128 c5 137 23 215 60 257 l22 26 -3 -202 -4 -202 64
7 c34 4 80 10 101 13 l37 6 0 146 c0 80 5 162 10 182 10 34 47 74 127 135 24
19 26 24 13 39 -11 13 -11 18 -1 24 25 16 7 55 -39 85 -50 34 -81 68 -94 105
-5 15 -12 181 -16 371 -5 335 -6 347 -30 404 -14 35 -45 82 -76 116 l-53 57
90 11 c127 17 312 67 394 106 134 64 272 188 316 286 l23 51 101 -6 c264 -16
598 -62 763 -104 76 -19 112 -25 112 -17 0 35 -511 120 -852 142 -60 3 -108
10 -108 15 0 4 5 20 10 35 l11 27 317 -6 c300 -5 479 -21 606 -53 22 -5 28 -4
24 7 -11 32 -388 70 -715 72 -123 1 -223 3 -223 4 0 1 7 35 16 75 20 96 33
349 23 460 -14 155 -86 326 -181 432 l-51 57 12 56 c17 87 13 227 -9 319 -30
129 -34 134 -94 134 -112 0 -238 -46 -411 -150 l-80 -48 -105 20 c-157 29
-462 36 -622 13 -68 -9 -152 -23 -187 -31 -57 -13 -66 -13 -81 1 -9 8 -19 15
-22 15 -3 0 -37 19 -74 42 -148 89 -286 138 -395 138 -48 0 -51 -2 -65 -35z
m841 -960 c217 -14 264 -14 491 0 195 13 269 14 330 5 145 -20 253 -92 326
-217 51 -87 62 -127 61 -229 -1 -133 -25 -227 -81 -321 -43 -70 -56 -83 -130
-129 -87 -55 -173 -84 -317 -106 -129 -20 -704 -17 -830 5 -345 60 -508 187
-561 439 -33 153 -2 283 94 405 71 89 157 136 277 152 87 12 78 12 340 -4z
m-997 -1062 c-2 -12 -12 -18 -28 -18 -16 0 -26 6 -28 18 -3 13 3 17 28 17 25
0 31 -4 28 -17z m100 -54 c3 -18 -29 -31 -48 -19 -7 4 -10 16 -7 25 9 21 51
16 55 -6z m51 -58 c7 -5 10 -14 7 -20 -10 -16 -56 -14 -56 2 0 26 23 35 49 18z
m59 -92 c3 -19 -21 -31 -43 -23 -18 7 -20 30 -2 37 21 9 42 2 45 -14z m57 -79
c0 -18 -33 -26 -47 -12 -6 6 -7 15 -3 22 10 16 50 8 50 -10z m82 -56 c8 -22
-11 -37 -36 -29 -23 7 -28 30 -8 38 23 10 38 7 44 -9z m642 -714 c-14 -66 -39
-118 -69 -143 -20 -17 -22 -25 -16 -70 l7 -52 -40 41 c-23 25 -60 49 -88 59
-26 9 -55 20 -63 22 -9 4 0 9 23 14 58 13 113 45 141 82 54 70 56 86 56 374 0
270 4 314 37 362 17 25 18 16 21 -304 2 -226 -1 -347 -9 -385z m546 658 c24
-52 25 -58 25 -326 0 -294 2 -309 56 -379 28 -37 83 -69 141 -82 23 -5 32 -10
23 -14 -8 -2 -37 -13 -63 -22 -28 -10 -65 -34 -87 -57 l-39 -41 6 51 c4 43 2
53 -17 69 -12 10 -29 32 -37 48 -38 72 -43 121 -43 468 0 185 2 337 5 337 3 0
17 -24 30 -52z m-840 22 c0 -18 -43 -26 -57 -12 -16 16 2 33 30 30 16 -2 27
-9 27 -18z m-230 -20 c0 -9 -11 -16 -27 -18 -23 -3 -28 1 -28 18 0 17 5 21 28
18 16 -2 27 -9 27 -18z m110 0 c0 -18 -33 -26 -47 -12 -6 6 -7 15 -3 22 10 16
50 8 50 -10z"/>
<path d="M1720 2823 c-54 -28 -85 -92 -85 -178 0 -83 24 -138 75 -172 44 -30
81 -29 121 4 45 38 69 96 69 168 0 135 -89 223 -180 178z"/>
<path d="M2800 2821 c-83 -44 -113 -199 -57 -294 56 -95 145 -101 204 -14 68
100 39 268 -54 312 -40 19 -51 19 -93 -4z"/>
<path d="M2258 2429 c-25 -14 -23 -65 3 -79 28 -15 59 -9 75 15 29 44 -30 93
-78 64z"/>
<path d="M2170 2268 c1 -35 72 -88 117 -88 57 0 123 47 123 87 0 22 -20 15
-50 -17 -22 -24 -36 -30 -69 -30 -40 0 -81 25 -81 50 0 6 -9 10 -20 10 -11 0
-20 -6 -20 -12z"/>
</g>
</svg>
